<svg width="1048" height="720" viewBox="0 0 1048 720" fill="none" xmlns="http://www.w3.org/2000/svg">
<g clip-path="url(#clip0_2671_346609)">
<rect width="1048" height="720" fill="#252423"/>
<g filter="url(#filter0_f_2671_346609)">
<path d="M-0.324219 523C18.378 514.96 67.0038 501.293 111.89 510.94C167.997 523 210.077 518.98 246.146 476.772C271.172 453.064 332.174 402.445 370.582 371.071C381.01 362.553 393.16 356.445 406.196 353.077L500.447 328.727C512.474 325.62 524.997 324.927 537.293 326.689L576.658 332.329C593.772 334.782 611.231 332.466 627.114 325.639L814.801 244.957C823.061 241.407 830.769 236.69 837.689 230.95L917.139 165.051C926.591 157.212 937.487 151.3 949.211 147.65L1047.68 117" stroke="url(#paint0_linear_2671_346609)" stroke-opacity="0.8" stroke-width="5" stroke-linecap="round"/>
</g>
<path d="M113.566 508.351C68.8094 498.745 20.324 512.354 1.67578 520.359V586H686.676V301L618.678 328.043C608.461 332.107 597.358 333.425 586.473 331.868L531.634 324.022C523.405 322.844 515.023 323.307 506.973 325.384L387.297 356.259C352.664 384.276 276.206 447.114 247.434 474.33C211.47 516.356 169.511 520.359 113.566 508.351Z" fill="url(#paint1_linear_2671_346609)"/>
<path d="M-0.324219 523C18.378 514.96 67.0038 501.293 111.89 510.94C167.997 523 210.077 518.98 246.146 476.772C271.172 453.064 332.174 402.445 370.582 371.071C381.01 362.553 393.16 356.445 406.196 353.077L500.447 328.727C512.474 325.62 524.997 324.927 537.293 326.689L576.658 332.329C593.772 334.782 611.231 332.466 627.114 325.639L814.801 244.957C823.061 241.407 830.769 236.69 837.689 230.95L917.139 165.051C926.591 157.212 937.487 151.3 949.211 147.65L1047.68 117" stroke="url(#paint2_linear_2671_346609)" stroke-width="5" stroke-linecap="round"/>
<line x1="687" y1="153" x2="687" y2="590" stroke="url(#paint3_linear_2671_346609)" stroke-width="2" stroke-dasharray="5 5"/>
<path d="M0 0H70C198.682 0 303 104.318 303 233V483C303 611.682 198.682 716 70 716H0V0Z" fill="url(#paint4_linear_2671_346609)"/>
<path d="M1048 724L981 724C863.916 724 769 629.084 769 512L769 212C769 94.9156 863.916 -1.60932e-05 981 -5.85733e-06L1048 0L1048 724Z" fill="url(#paint5_linear_2671_346609)"/>
<path d="M800 131L800 222L524 222L524 131L800 131Z" fill="url(#paint6_linear_2671_346609)"/>
<rect y="680" width="259" height="1048" rx="129.5" transform="rotate(-90 0 680)" fill="url(#paint7_linear_2671_346609)"/>
<g filter="url(#filter1_d_2671_346609)">
<circle cx="687" cy="298" r="12" fill="white"/>
</g>
<g filter="url(#filter2_i_2671_346609)">
<rect x="638" y="131" width="96" height="31" rx="12" fill="#FFFCFB"/>
<path d="M652.254 148.223H653.719C653.672 148.781 653.516 149.279 653.25 149.717C652.985 150.15 652.612 150.492 652.131 150.742C651.651 150.992 651.067 151.117 650.379 151.117C649.852 151.117 649.377 151.023 648.955 150.836C648.534 150.645 648.172 150.375 647.871 150.027C647.571 149.676 647.34 149.252 647.18 148.756C647.024 148.26 646.946 147.705 646.946 147.092V146.383C646.946 145.77 647.026 145.215 647.186 144.719C647.35 144.223 647.584 143.799 647.889 143.447C648.194 143.092 648.559 142.82 648.985 142.633C649.414 142.445 649.897 142.352 650.432 142.352C651.112 142.352 651.686 142.477 652.155 142.727C652.623 142.977 652.987 143.322 653.244 143.764C653.506 144.205 653.666 144.711 653.725 145.281H652.26C652.221 144.914 652.135 144.6 652.002 144.338C651.873 144.076 651.682 143.877 651.428 143.74C651.174 143.6 650.842 143.529 650.432 143.529C650.096 143.529 649.803 143.592 649.553 143.717C649.303 143.842 649.094 144.025 648.926 144.268C648.758 144.51 648.631 144.809 648.545 145.164C648.463 145.516 648.422 145.918 648.422 146.371V147.092C648.422 147.521 648.459 147.912 648.534 148.264C648.612 148.611 648.729 148.91 648.885 149.16C649.045 149.41 649.248 149.604 649.494 149.74C649.741 149.877 650.035 149.945 650.379 149.945C650.797 149.945 651.135 149.879 651.393 149.746C651.655 149.613 651.852 149.42 651.985 149.166C652.121 148.908 652.211 148.594 652.254 148.223ZM658.249 149.729V146.705C658.249 146.479 658.208 146.283 658.126 146.119C658.044 145.955 657.919 145.828 657.751 145.738C657.586 145.648 657.379 145.604 657.129 145.604C656.899 145.604 656.7 145.643 656.532 145.721C656.364 145.799 656.233 145.904 656.139 146.037C656.045 146.17 655.999 146.32 655.999 146.488H654.592C654.592 146.238 654.653 145.996 654.774 145.762C654.895 145.527 655.071 145.318 655.301 145.135C655.532 144.951 655.807 144.807 656.128 144.701C656.448 144.596 656.807 144.543 657.206 144.543C657.682 144.543 658.104 144.623 658.471 144.783C658.842 144.943 659.133 145.186 659.344 145.51C659.559 145.83 659.667 146.232 659.667 146.717V149.535C659.667 149.824 659.686 150.084 659.725 150.314C659.768 150.541 659.829 150.738 659.907 150.906V151H658.46C658.393 150.848 658.34 150.654 658.301 150.42C658.266 150.182 658.249 149.951 658.249 149.729ZM658.454 147.145L658.465 148.018H657.452C657.19 148.018 656.96 148.043 656.76 148.094C656.561 148.141 656.395 148.211 656.262 148.305C656.129 148.398 656.03 148.512 655.963 148.645C655.897 148.777 655.864 148.928 655.864 149.096C655.864 149.264 655.903 149.418 655.981 149.559C656.059 149.695 656.172 149.803 656.321 149.881C656.473 149.959 656.657 149.998 656.872 149.998C657.161 149.998 657.413 149.939 657.628 149.822C657.846 149.701 658.018 149.555 658.143 149.383C658.268 149.207 658.335 149.041 658.342 148.885L658.799 149.512C658.753 149.672 658.672 149.844 658.559 150.027C658.446 150.211 658.297 150.387 658.114 150.555C657.934 150.719 657.717 150.854 657.463 150.959C657.213 151.064 656.924 151.117 656.596 151.117C656.182 151.117 655.813 151.035 655.489 150.871C655.165 150.703 654.911 150.479 654.727 150.197C654.544 149.912 654.452 149.59 654.452 149.23C654.452 148.895 654.514 148.598 654.639 148.34C654.768 148.078 654.956 147.859 655.202 147.684C655.452 147.508 655.756 147.375 656.116 147.285C656.475 147.191 656.885 147.145 657.346 147.145H658.454ZM662.415 142V151H660.997V142H662.415ZM665.233 142V151H663.815V142H665.233ZM673.917 148.803C673.917 148.627 673.89 148.471 673.835 148.334C673.785 148.197 673.693 148.072 673.56 147.959C673.427 147.846 673.24 147.736 672.998 147.631C672.759 147.521 672.455 147.41 672.084 147.297C671.677 147.172 671.302 147.033 670.959 146.881C670.619 146.725 670.322 146.545 670.068 146.342C669.814 146.135 669.617 145.898 669.476 145.633C669.335 145.363 669.265 145.053 669.265 144.701C669.265 144.354 669.337 144.037 669.482 143.752C669.63 143.467 669.839 143.221 670.109 143.014C670.382 142.803 670.705 142.641 671.076 142.527C671.447 142.41 671.857 142.352 672.306 142.352C672.939 142.352 673.484 142.469 673.941 142.703C674.402 142.938 674.755 143.252 675.001 143.646C675.251 144.041 675.376 144.477 675.376 144.953H673.917C673.917 144.672 673.857 144.424 673.736 144.209C673.619 143.99 673.439 143.818 673.197 143.693C672.959 143.568 672.656 143.506 672.289 143.506C671.941 143.506 671.652 143.559 671.421 143.664C671.191 143.77 671.019 143.912 670.906 144.092C670.792 144.271 670.736 144.475 670.736 144.701C670.736 144.861 670.773 145.008 670.847 145.141C670.921 145.27 671.035 145.391 671.187 145.504C671.339 145.613 671.531 145.717 671.761 145.814C671.992 145.912 672.263 146.006 672.576 146.096C673.048 146.236 673.46 146.393 673.812 146.564C674.164 146.732 674.457 146.924 674.691 147.139C674.925 147.354 675.101 147.598 675.218 147.871C675.335 148.141 675.394 148.447 675.394 148.791C675.394 149.15 675.322 149.475 675.177 149.764C675.033 150.049 674.826 150.293 674.556 150.496C674.291 150.695 673.97 150.85 673.595 150.959C673.224 151.064 672.81 151.117 672.353 151.117C671.943 151.117 671.539 151.062 671.14 150.953C670.746 150.844 670.386 150.678 670.062 150.455C669.738 150.229 669.48 149.947 669.289 149.611C669.097 149.271 669.001 148.875 669.001 148.422H670.472C670.472 148.699 670.519 148.936 670.613 149.131C670.71 149.326 670.845 149.486 671.017 149.611C671.189 149.732 671.388 149.822 671.615 149.881C671.845 149.939 672.091 149.969 672.353 149.969C672.697 149.969 672.984 149.92 673.214 149.822C673.449 149.725 673.625 149.588 673.742 149.412C673.859 149.236 673.917 149.033 673.917 148.803ZM680.129 149.506V144.66H681.547V151H680.211L680.129 149.506ZM680.328 148.188L680.802 148.176C680.802 148.602 680.756 148.994 680.662 149.354C680.568 149.709 680.424 150.02 680.228 150.285C680.033 150.547 679.783 150.752 679.478 150.9C679.174 151.045 678.808 151.117 678.383 151.117C678.074 151.117 677.791 151.072 677.533 150.982C677.275 150.893 677.052 150.754 676.865 150.566C676.681 150.379 676.539 150.135 676.437 149.834C676.336 149.533 676.285 149.174 676.285 148.756V144.66H677.697V148.768C677.697 148.998 677.724 149.191 677.779 149.348C677.834 149.5 677.908 149.623 678.002 149.717C678.095 149.811 678.205 149.877 678.33 149.916C678.455 149.955 678.588 149.975 678.728 149.975C679.131 149.975 679.447 149.896 679.677 149.74C679.912 149.58 680.078 149.365 680.176 149.096C680.277 148.826 680.328 148.523 680.328 148.188ZM685.344 149.992C685.574 149.992 685.781 149.947 685.965 149.857C686.152 149.764 686.303 149.635 686.416 149.471C686.533 149.307 686.598 149.117 686.609 148.902H687.939C687.932 149.312 687.811 149.686 687.576 150.021C687.342 150.357 687.031 150.625 686.645 150.824C686.258 151.02 685.83 151.117 685.361 151.117C684.877 151.117 684.455 151.035 684.096 150.871C683.736 150.703 683.438 150.473 683.199 150.18C682.961 149.887 682.781 149.549 682.66 149.166C682.543 148.783 682.484 148.373 682.484 147.936V147.73C682.484 147.293 682.543 146.883 682.66 146.5C682.781 146.113 682.961 145.773 683.199 145.48C683.438 145.188 683.736 144.959 684.096 144.795C684.455 144.627 684.875 144.543 685.355 144.543C685.863 144.543 686.309 144.645 686.691 144.848C687.074 145.047 687.375 145.326 687.594 145.686C687.816 146.041 687.932 146.455 687.939 146.928H686.609C686.598 146.693 686.539 146.482 686.434 146.295C686.332 146.104 686.188 145.951 686 145.838C685.816 145.725 685.596 145.668 685.338 145.668C685.053 145.668 684.816 145.727 684.629 145.844C684.441 145.957 684.295 146.113 684.189 146.312C684.084 146.508 684.008 146.729 683.961 146.975C683.918 147.217 683.896 147.469 683.896 147.73V147.936C683.896 148.197 683.918 148.451 683.961 148.697C684.004 148.943 684.078 149.164 684.184 149.359C684.293 149.551 684.441 149.705 684.629 149.822C684.816 149.936 685.055 149.992 685.344 149.992ZM691.373 149.992C691.604 149.992 691.811 149.947 691.994 149.857C692.182 149.764 692.332 149.635 692.446 149.471C692.563 149.307 692.627 149.117 692.639 148.902H693.969C693.961 149.312 693.84 149.686 693.606 150.021C693.371 150.357 693.061 150.625 692.674 150.824C692.287 151.02 691.86 151.117 691.391 151.117C690.906 151.117 690.485 151.035 690.125 150.871C689.766 150.703 689.467 150.473 689.229 150.18C688.99 149.887 688.811 149.549 688.69 149.166C688.573 148.783 688.514 148.373 688.514 147.936V147.73C688.514 147.293 688.573 146.883 688.69 146.5C688.811 146.113 688.99 145.773 689.229 145.48C689.467 145.188 689.766 144.959 690.125 144.795C690.485 144.627 690.905 144.543 691.385 144.543C691.893 144.543 692.338 144.645 692.721 144.848C693.104 145.047 693.405 145.326 693.623 145.686C693.846 146.041 693.961 146.455 693.969 146.928H692.639C692.627 146.693 692.569 146.482 692.463 146.295C692.362 146.104 692.217 145.951 692.03 145.838C691.846 145.725 691.625 145.668 691.367 145.668C691.082 145.668 690.846 145.727 690.658 145.844C690.471 145.957 690.324 146.113 690.219 146.312C690.114 146.508 690.037 146.729 689.99 146.975C689.948 147.217 689.926 147.469 689.926 147.73V147.936C689.926 148.197 689.948 148.451 689.99 148.697C690.033 148.943 690.108 149.164 690.213 149.359C690.323 149.551 690.471 149.705 690.658 149.822C690.846 149.936 691.084 149.992 691.373 149.992ZM697.608 151.117C697.139 151.117 696.715 151.041 696.336 150.889C695.961 150.732 695.641 150.516 695.375 150.238C695.114 149.961 694.913 149.635 694.772 149.26C694.631 148.885 694.561 148.48 694.561 148.047V147.812C694.561 147.316 694.633 146.867 694.778 146.465C694.922 146.062 695.124 145.719 695.381 145.434C695.639 145.145 695.944 144.924 696.295 144.771C696.647 144.619 697.028 144.543 697.438 144.543C697.891 144.543 698.288 144.619 698.627 144.771C698.967 144.924 699.249 145.139 699.471 145.416C699.698 145.689 699.866 146.016 699.975 146.395C700.088 146.773 700.145 147.191 700.145 147.648V148.252H695.247V147.238H698.75V147.127C698.743 146.873 698.692 146.635 698.598 146.412C698.508 146.189 698.37 146.01 698.182 145.873C697.995 145.736 697.745 145.668 697.432 145.668C697.198 145.668 696.989 145.719 696.805 145.82C696.625 145.918 696.475 146.061 696.354 146.248C696.233 146.436 696.139 146.662 696.073 146.928C696.01 147.189 695.979 147.484 695.979 147.812V148.047C695.979 148.324 696.016 148.582 696.09 148.82C696.168 149.055 696.282 149.26 696.43 149.436C696.579 149.611 696.758 149.75 696.969 149.852C697.18 149.949 697.42 149.998 697.69 149.998C698.03 149.998 698.333 149.93 698.598 149.793C698.864 149.656 699.094 149.463 699.29 149.213L700.034 149.934C699.897 150.133 699.719 150.324 699.5 150.508C699.282 150.688 699.014 150.834 698.698 150.947C698.385 151.061 698.022 151.117 697.608 151.117ZM704.563 149.283C704.563 149.143 704.528 149.016 704.458 148.902C704.387 148.785 704.253 148.68 704.053 148.586C703.858 148.492 703.569 148.406 703.186 148.328C702.85 148.254 702.542 148.166 702.26 148.064C701.983 147.959 701.745 147.832 701.546 147.684C701.346 147.535 701.192 147.359 701.083 147.156C700.973 146.953 700.919 146.719 700.919 146.453C700.919 146.195 700.975 145.951 701.089 145.721C701.202 145.49 701.364 145.287 701.575 145.111C701.786 144.936 702.042 144.797 702.342 144.695C702.647 144.594 702.987 144.543 703.362 144.543C703.893 144.543 704.348 144.633 704.727 144.812C705.11 144.988 705.403 145.229 705.606 145.533C705.809 145.834 705.911 146.174 705.911 146.553H704.499C704.499 146.385 704.456 146.229 704.37 146.084C704.288 145.936 704.163 145.816 703.995 145.727C703.827 145.633 703.616 145.586 703.362 145.586C703.12 145.586 702.919 145.625 702.759 145.703C702.602 145.777 702.485 145.875 702.407 145.996C702.333 146.117 702.296 146.25 702.296 146.395C702.296 146.5 702.315 146.596 702.354 146.682C702.397 146.764 702.467 146.84 702.565 146.91C702.663 146.977 702.796 147.039 702.964 147.098C703.135 147.156 703.35 147.213 703.608 147.268C704.092 147.369 704.509 147.5 704.856 147.66C705.208 147.816 705.477 148.02 705.665 148.27C705.852 148.516 705.946 148.828 705.946 149.207C705.946 149.488 705.885 149.746 705.764 149.98C705.647 150.211 705.475 150.412 705.249 150.584C705.022 150.752 704.751 150.883 704.434 150.977C704.122 151.07 703.77 151.117 703.38 151.117C702.805 151.117 702.319 151.016 701.921 150.812C701.522 150.605 701.219 150.342 701.012 150.021C700.809 149.697 700.708 149.361 700.708 149.014H702.073C702.089 149.275 702.161 149.484 702.29 149.641C702.423 149.793 702.587 149.904 702.782 149.975C702.981 150.041 703.186 150.074 703.397 150.074C703.651 150.074 703.864 150.041 704.036 149.975C704.208 149.904 704.339 149.811 704.428 149.693C704.518 149.572 704.563 149.436 704.563 149.283ZM710.499 149.283C710.499 149.143 710.464 149.016 710.394 148.902C710.323 148.785 710.188 148.68 709.989 148.586C709.794 148.492 709.505 148.406 709.122 148.328C708.786 148.254 708.478 148.166 708.196 148.064C707.919 147.959 707.681 147.832 707.481 147.684C707.282 147.535 707.128 147.359 707.019 147.156C706.909 146.953 706.854 146.719 706.854 146.453C706.854 146.195 706.911 145.951 707.024 145.721C707.138 145.49 707.3 145.287 707.511 145.111C707.722 144.936 707.978 144.797 708.278 144.695C708.583 144.594 708.923 144.543 709.298 144.543C709.829 144.543 710.284 144.633 710.663 144.812C711.046 144.988 711.339 145.229 711.542 145.533C711.745 145.834 711.847 146.174 711.847 146.553H710.435C710.435 146.385 710.392 146.229 710.306 146.084C710.224 145.936 710.099 145.816 709.931 145.727C709.763 145.633 709.552 145.586 709.298 145.586C709.056 145.586 708.854 145.625 708.694 145.703C708.538 145.777 708.421 145.875 708.343 145.996C708.269 146.117 708.231 146.25 708.231 146.395C708.231 146.5 708.251 146.596 708.29 146.682C708.333 146.764 708.403 146.84 708.501 146.91C708.599 146.977 708.731 147.039 708.899 147.098C709.071 147.156 709.286 147.213 709.544 147.268C710.028 147.369 710.444 147.5 710.792 147.66C711.144 147.816 711.413 148.02 711.601 148.27C711.788 148.516 711.882 148.828 711.882 149.207C711.882 149.488 711.821 149.746 711.7 149.98C711.583 150.211 711.411 150.412 711.185 150.584C710.958 150.752 710.686 150.883 710.37 150.977C710.058 151.07 709.706 151.117 709.315 151.117C708.741 151.117 708.255 151.016 707.856 150.812C707.458 150.605 707.155 150.342 706.948 150.021C706.745 149.697 706.644 149.361 706.644 149.014H708.009C708.024 149.275 708.097 149.484 708.226 149.641C708.358 149.793 708.522 149.904 708.718 149.975C708.917 150.041 709.122 150.074 709.333 150.074C709.587 150.074 709.8 150.041 709.972 149.975C710.144 149.904 710.274 149.811 710.364 149.693C710.454 149.572 710.499 149.436 710.499 149.283ZM714.788 151H713.376V144.051C713.376 143.578 713.464 143.182 713.64 142.861C713.82 142.537 714.075 142.293 714.407 142.129C714.739 141.961 715.132 141.877 715.585 141.877C715.726 141.877 715.864 141.887 716.001 141.906C716.138 141.922 716.271 141.947 716.4 141.982L716.364 143.072C716.286 143.053 716.2 143.039 716.107 143.031C716.017 143.023 715.919 143.02 715.814 143.02C715.599 143.02 715.413 143.061 715.257 143.143C715.105 143.221 714.988 143.336 714.905 143.488C714.827 143.641 714.788 143.828 714.788 144.051V151ZM716.095 144.66V145.691H712.404V144.66H716.095ZM720.695 149.506V144.66H722.113V151H720.777L720.695 149.506ZM720.894 148.188L721.369 148.176C721.369 148.602 721.322 148.994 721.228 149.354C721.134 149.709 720.99 150.02 720.794 150.285C720.599 150.547 720.349 150.752 720.044 150.9C719.74 151.045 719.374 151.117 718.949 151.117C718.64 151.117 718.357 151.072 718.099 150.982C717.841 150.893 717.619 150.754 717.431 150.566C717.247 150.379 717.105 150.135 717.003 149.834C716.902 149.533 716.851 149.174 716.851 148.756V144.66H718.263V148.768C718.263 148.998 718.29 149.191 718.345 149.348C718.4 149.5 718.474 149.623 718.568 149.717C718.662 149.811 718.771 149.877 718.896 149.916C719.021 149.955 719.154 149.975 719.294 149.975C719.697 149.975 720.013 149.896 720.244 149.74C720.478 149.58 720.644 149.365 720.742 149.096C720.843 148.826 720.894 148.523 720.894 148.188ZM724.832 142V151H723.414V142H724.832Z" fill="#171717"/>
</g>
</g>
<defs>
<filter id="filter0_f_2671_346609" x="-19.8247" y="97.5" width="1087" height="445" filterUnits="userSpaceOnUse" color-interpolation-filters="sRGB">
<feFlood flood-opacity="0" result="BackgroundImageFix"/>
<feBlend mode="normal" in="SourceGraphic" in2="BackgroundImageFix" result="shape"/>
<feGaussianBlur stdDeviation="8.5" result="effect1_foregroundBlur_2671_346609"/>
</filter>
<filter id="filter1_d_2671_346609" x="654" y="265" width="66" height="66" filterUnits="userSpaceOnUse" color-interpolation-filters="sRGB">
<feFlood flood-opacity="0" result="BackgroundImageFix"/>
<feColorMatrix in="SourceAlpha" type="matrix" values="0 0 0 0 0 0 0 0 0 0 0 0 0 0 0 0 0 0 127 0" result="hardAlpha"/>
<feOffset/>
<feGaussianBlur stdDeviation="10.5"/>
<feComposite in2="hardAlpha" operator="out"/>
<feColorMatrix type="matrix" values="0 0 0 0 1 0 0 0 0 0.990704 0 0 0 0 0.990704 0 0 0 0.55 0"/>
<feBlend mode="normal" in2="BackgroundImageFix" result="effect1_dropShadow_2671_346609"/>
<feBlend mode="normal" in="SourceGraphic" in2="effect1_dropShadow_2671_346609" result="shape"/>
</filter>
<filter id="filter2_i_2671_346609" x="638" y="131" width="96" height="34" filterUnits="userSpaceOnUse" color-interpolation-filters="sRGB">
<feFlood flood-opacity="0" result="BackgroundImageFix"/>
<feBlend mode="normal" in="SourceGraphic" in2="BackgroundImageFix" result="shape"/>
<feColorMatrix in="SourceAlpha" type="matrix" values="0 0 0 0 0 0 0 0 0 0 0 0 0 0 0 0 0 0 127 0" result="hardAlpha"/>
<feOffset dy="3"/>
<feGaussianBlur stdDeviation="2"/>
<feComposite in2="hardAlpha" operator="arithmetic" k2="-1" k3="1"/>
<feColorMatrix type="matrix" values="0 0 0 0 0.851901 0 0 0 0 0.851901 0 0 0 0 0.851901 0 0 0 1 0"/>
<feBlend mode="normal" in2="shape" result="effect1_innerShadow_2671_346609"/>
</filter>
<linearGradient id="paint0_linear_2671_346609" x1="775" y1="208.5" x2="569" y2="320" gradientUnits="userSpaceOnUse">
<stop stop-color="white"/>
<stop offset="1" stop-color="#9BC15E"/>
</linearGradient>
<linearGradient id="paint1_linear_2671_346609" x1="303.963" y1="312.301" x2="344.301" y2="585.982" gradientUnits="userSpaceOnUse">
<stop stop-color="#9BC15E" stop-opacity="0.7"/>
<stop offset="1" stop-color="#252423" stop-opacity="0"/>
</linearGradient>
<linearGradient id="paint2_linear_2671_346609" x1="775" y1="208.5" x2="569" y2="320" gradientUnits="userSpaceOnUse">
<stop stop-color="white"/>
<stop offset="1" stop-color="#9BC15E"/>
</linearGradient>
<linearGradient id="paint3_linear_2671_346609" x1="685.5" y1="153" x2="685.5" y2="590" gradientUnits="userSpaceOnUse">
<stop stop-color="white"/>
<stop offset="1" stop-color="#252423"/>
</linearGradient>
<linearGradient id="paint4_linear_2671_346609" x1="95.2545" y1="328.167" x2="303.003" y2="326.511" gradientUnits="userSpaceOnUse">
<stop stop-color="#252423"/>
<stop offset="1" stop-color="#252423" stop-opacity="0"/>
</linearGradient>
<linearGradient id="paint5_linear_2671_346609" x1="943.375" y1="383.619" x2="769" y2="383.619" gradientUnits="userSpaceOnUse">
<stop stop-color="#252423"/>
<stop offset="1" stop-color="#252423" stop-opacity="0"/>
</linearGradient>
<linearGradient id="paint6_linear_2671_346609" x1="670.242" y1="165.125" x2="670.242" y2="222" gradientUnits="userSpaceOnUse">
<stop stop-color="#252423"/>
<stop offset="1" stop-color="#252423" stop-opacity="0"/>
</linearGradient>
<linearGradient id="paint7_linear_2671_346609" x1="97.125" y1="1172.71" x2="259" y2="1172.71" gradientUnits="userSpaceOnUse">
<stop stop-color="#252423"/>
<stop offset="1" stop-color="#252423" stop-opacity="0"/>
</linearGradient>
<clipPath id="clip0_2671_346609">
<rect width="1048" height="720" fill="white"/>
</clipPath>
</defs>
</svg>
